<?xml version="1.0" encoding="UTF-8" standalone="no"?>
<svg
   xmlns:dc="http://purl.org/dc/elements/1.1/"
   xmlns:cc="http://creativecommons.org/ns#"
   xmlns:rdf="http://www.w3.org/1999/02/22-rdf-syntax-ns#"
   xmlns:svg="http://www.w3.org/2000/svg"
   xmlns="http://www.w3.org/2000/svg"
   xmlns:sodipodi="http://sodipodi.sourceforge.net/DTD/sodipodi-0.dtd"
   xmlns:inkscape="http://www.inkscape.org/namespaces/inkscape"
   width="461"
   height="461"
   viewBox="0 0 461 461"
   id="svg2"
   version="1.1"
   inkscape:version="0.91 r13725"
   sodipodi:docname="facebook.svg">
  <metadata
     id="metadata9">
    <rdf:RDF>
      <cc:Work
         rdf:about="">
        <dc:format>image/svg+xml</dc:format>
        <dc:type
           rdf:resource="http://purl.org/dc/dcmitype/StillImage" />
        <dc:title></dc:title>
      </cc:Work>
    </rdf:RDF>
  </metadata>
  <defs
     id="defs7" />
  <sodipodi:namedview
     pagecolor="#ffffff"
     bordercolor="#666666"
     borderopacity="1"
     objecttolerance="10"
     gridtolerance="10"
     guidetolerance="10"
     inkscape:pageopacity="0"
     inkscape:pageshadow="2"
     inkscape:window-width="1278"
     inkscape:window-height="704"
     id="namedview5"
     showgrid="false"
     fit-margin-top="0"
     fit-margin-left="0"
     fit-margin-right="0"
     fit-margin-bottom="0"
     inkscape:zoom="0.84285714"
     inkscape:cx="-186.56263"
     inkscape:cy="233.53161"
     inkscape:window-x="0"
     inkscape:window-y="0"
     inkscape:window-maximized="0"
     inkscape:current-layer="svg2" />
  <path
     style="fill:#000000"
     d="M 0,230.5 0,0 230.5,0 461,0 461,230.5 461,461 230.5,461 0,461 0,230.5 Z m 460,0 L 460,1 230.5,1 1,1 1,230.5 1,460 l 229.5,0 229.5,0 0,-229.5 z m -271,98.5 0,-94 -32.5,0 -32.5,0 0,-31.5 0,-31.5 32.5,0 32.5,0 0,-23.86901 c 0,-16.51065 0.45249,-26.45271 1.46777,-32.25 C 196.94535,78.89403 221.19279,50.9362 255,41.47392 c 5.60909,-1.56992 11.60559,-1.87442 43.75,-2.2216 l 37.25,-0.40233 0,33.575 0,33.57501 -31.99712,0 -31.99712,0 -3.94445,3.56358 C 261.13978,115.81676 260.5,118.98434 260.5,147 l 0,24.5 37.75,0.26203 37.75,0.26202 0,31.48798 0,31.48797 -38,0 -38,0 0,94 0,94 -35.5,0 -35.5,0 0,-94 z"
     id="path3406"
     inkscape:connector-curvature="0" />
</svg>
