<?xml version="1.0" encoding="UTF-8" standalone="no"?>
<!-- Created with Inkscape (http://www.inkscape.org/) -->

<svg
   xmlns:dc="http://purl.org/dc/elements/1.1/"
   xmlns:cc="http://creativecommons.org/ns#"
   xmlns:rdf="http://www.w3.org/1999/02/22-rdf-syntax-ns#"
   xmlns:svg="http://www.w3.org/2000/svg"
   xmlns="http://www.w3.org/2000/svg"
   xmlns:sodipodi="http://sodipodi.sourceforge.net/DTD/sodipodi-0.dtd"
   xmlns:inkscape="http://www.inkscape.org/namespaces/inkscape"
   id="svg2"
   version="1.1"
   inkscape:version="0.91 r13725"
   width="493"
   height="494"
   viewBox="0 0 493 494"
   sodipodi:docname="facebook.svg">
  <metadata
     id="metadata8">
    <rdf:RDF>
      <cc:Work
         rdf:about="">
        <dc:format>image/svg+xml</dc:format>
        <dc:type
           rdf:resource="http://purl.org/dc/dcmitype/StillImage" />
        <dc:title></dc:title>
      </cc:Work>
    </rdf:RDF>
  </metadata>
  <defs
     id="defs6" />
  <sodipodi:namedview
     pagecolor="#ffffff"
     bordercolor="#666666"
     borderopacity="1"
     objecttolerance="10"
     gridtolerance="10"
     guidetolerance="10"
     inkscape:pageopacity="0"
     inkscape:pageshadow="2"
     inkscape:window-width="1279"
     inkscape:window-height="712"
     id="namedview4"
     showgrid="false"
     fit-margin-top="0"
     fit-margin-left="0"
     fit-margin-right="0"
     fit-margin-bottom="0"
     inkscape:zoom="0.4609375"
     inkscape:cx="-573.0678"
     inkscape:cy="286.05085"
     inkscape:window-x="0"
     inkscape:window-y="0"
     inkscape:window-maximized="0"
     inkscape:current-layer="svg2" />
  <path
     style="fill:#000000"
     d="M 0,247 0,0 246.5,0 493,0 l 0,247 0,247 -246.5,0 L 0,494 0,247 Z m 481,0 0,-235 -234.5,0 -234.5,0 0,235 0,235 234.5,0 234.5,0 0,-235 z m -277,95.5 0,-96.5 -33,0 -33,0 0,-32 0,-32 32.8828,0 32.8828,0 0.5349,-26.25 c 0.5558,-27.27632 1.4664,-34.70009 5.7762,-47.09172 C 219.3992,81.854032 239.219,60.572432 263.2672,51.544665 275.8973,46.803299 284.2804,46 321.131,46 L 355,46 355,80.000002 355,114 l -31.0321,0 c -34.5249,0 -35.4731,0.15002 -40.6513,6.43203 C 278.4591,126.32505 278,129.47127 278,156.86602 L 278,182 l 38.5,0 38.5,0 0,32 0,32 -38.5,0 -38.5,0 0,96.5 0,96.5 -37,0 -37,0 0,-96.5 z"
     id="path3338"
     inkscape:connector-curvature="0" />
</svg>
