<?xml version="1.0" encoding="UTF-8" standalone="no"?>
<svg
   xmlns:dc="http://purl.org/dc/elements/1.1/"
   xmlns:cc="http://creativecommons.org/ns#"
   xmlns:rdf="http://www.w3.org/1999/02/22-rdf-syntax-ns#"
   xmlns:svg="http://www.w3.org/2000/svg"
   xmlns="http://www.w3.org/2000/svg"
   xmlns:sodipodi="http://sodipodi.sourceforge.net/DTD/sodipodi-0.dtd"
   xmlns:inkscape="http://www.inkscape.org/namespaces/inkscape"
   width="461"
   height="458.70001"
   viewBox="0 0 461 458.70001"
   id="svg2"
   version="1.1"
   inkscape:version="0.91 r13725"
   sodipodi:docname="insta.svg">
  <metadata
     id="metadata9">
    <rdf:RDF>
      <cc:Work
         rdf:about="">
        <dc:format>image/svg+xml</dc:format>
        <dc:type
           rdf:resource="http://purl.org/dc/dcmitype/StillImage" />
        <dc:title></dc:title>
      </cc:Work>
    </rdf:RDF>
  </metadata>
  <defs
     id="defs7" />
  <sodipodi:namedview
     pagecolor="#ffffff"
     bordercolor="#666666"
     borderopacity="1"
     objecttolerance="10"
     gridtolerance="10"
     guidetolerance="10"
     inkscape:pageopacity="0"
     inkscape:pageshadow="2"
     inkscape:window-width="1278"
     inkscape:window-height="704"
     id="namedview5"
     showgrid="false"
     fit-margin-top="0"
     fit-margin-left="0"
     fit-margin-right="0"
     fit-margin-bottom="-2.3"
     inkscape:zoom="0.84285714"
     inkscape:cx="432.87805"
     inkscape:cy="306.29078"
     inkscape:window-x="0"
     inkscape:window-y="0"
     inkscape:window-maximized="0"
     inkscape:current-layer="svg2" />
  <path
     style="fill:#010101"
     d="M 0,230.5 0,0 230.5,0 461,0 461,230.5 461,461 230.5,461 0,461 0,230.5 Z m 460,0 L 460,1 230.5,1 1,1 1,230.5 1,460 l 229.5,0 229.5,0 0,-229.5 z M 143,419.93638 C 100.85218,414.37936 64.01071,386.01468 48.13851,346.90139 39.00241,324.3876 38.79503,321.5081 39.25143,223.5 39.66462,134.77203 39.52954,137.09143 45.24998,120.5 53.80897,95.67569 70.6064,73.74862 92,59.47334 105.85681,50.22713 118.54118,44.8785 135.04741,41.32149 142.85642,39.63869 150.0861,39.5 230,39.5 c 79.9139,0 87.14358,0.13869 94.95259,1.82149 23.71383,5.11021 44.22947,16.17297 60.89121,32.83471 16.66174,16.66174 27.72451,37.17738 32.83471,60.89121 1.6828,7.80901 1.82149,15.03869 1.82149,94.95259 0,94.01897 0.0719,92.645 -5.73082,109.45259 -12.24905,35.47911 -39.84252,63.08294 -75.26918,75.29743 -16.70032,5.75798 -13.88334,5.60226 -105.5,5.83173 -46.475,0.1164 -87.425,-0.17402 -91,-0.64536 z m 180.82929,-37.73452 c 14.57852,-4.48104 26.57951,-11.57362 36.68923,-21.68333 10.34015,-10.34015 17.47308,-22.56268 21.72126,-37.22011 L 384.5,315.5 l 0,-85.5 0,-85.49999 -2.26022,-7.79842 C 377.9916,122.04415 370.85867,109.82163 360.51852,99.48148 350.17837,89.14133 337.95585,82.0084 323.29841,77.76022 L 315.5,75.5 l -85.5,0 -85.5,0 -7.79841,2.26022 C 122.04415,82.0084 109.82163,89.14133 99.48148,99.48148 89.14133,109.82163 82.0084,122.04415 77.76022,136.70159 L 75.5,144.50001 75.5,230 l 0,85.5 2.26022,7.79841 c 4.24818,14.65744 11.38111,26.87996 21.72126,37.22011 12.3632,12.3632 28.61377,20.67916 46.51852,23.80508 1.375,0.24006 40.3,0.36776 86.5,0.28378 l 84,-0.15269 7.32929,-2.25283 z M 211.11298,323.51391 C 175.2449,315.4036 149.06682,291.23185 138.30747,256.28832 135.80403,248.15783 135.60148,246.19009 135.60148,230 c 0,-16.19007 0.20255,-18.15783 2.70599,-26.28832 9.9298,-32.24935 33.15642,-55.47433 65.41069,-65.40609 8.12304,-2.50125 10.09466,-2.70411 26.28184,-2.70411 16.18718,0 18.1588,0.20286 26.28184,2.70411 32.25427,9.93175 55.48089,33.15674 65.41069,65.40609 2.50344,8.13049 2.70599,10.09825 2.70599,26.28832 0,16.19009 -0.20255,18.15783 -2.70599,26.28832 -9.93812,32.27638 -33.43242,55.74393 -65.41069,65.33621 -7.40915,2.22246 -11.1265,2.68888 -23.78184,2.9839 -10.59211,0.24693 -16.87689,-0.0747 -21.38702,-1.09452 z M 246,287.36536 c 19.71948,-5.53848 35.61978,-21.5475 41.58101,-41.86536 2.35605,-8.03021 2.35605,-22.96979 0,-31 -6.01498,-20.50106 -21.57995,-36.06603 -42.08101,-42.08101 -8.03021,-2.35604 -22.96979,-2.35604 -31,0 -20.50106,6.01499 -36.06603,21.57995 -42.08101,42.08101 -1.13593,3.87164 -1.76039,9.36991 -1.76039,15.5 0,6.13009 0.62446,11.62836 1.76039,15.5 6.75026,23.00713 25.76466,39.91436 48.98312,43.55481 6.57384,1.03072 17.61221,0.27258 24.59789,-1.68945 z m 80.29855,-149.26633 c -7.38229,-4.63624 -8.26601,-13.99145 -1.87494,-19.84843 2.78522,-2.55247 4.41992,-3.2506 7.61136,-3.2506 8.07397,0 12.96503,4.89106 12.96503,12.96503 0,9.01887 -10.99239,14.97547 -18.70145,10.134 z"
     id="path3683"
     inkscape:connector-curvature="0" />
</svg>
