<?xml version="1.0" encoding="UTF-8" standalone="no"?>
<!-- Created with Inkscape (http://www.inkscape.org/) -->

<svg
   xmlns:dc="http://purl.org/dc/elements/1.1/"
   xmlns:cc="http://creativecommons.org/ns#"
   xmlns:rdf="http://www.w3.org/1999/02/22-rdf-syntax-ns#"
   xmlns:svg="http://www.w3.org/2000/svg"
   xmlns="http://www.w3.org/2000/svg"
   xmlns:sodipodi="http://sodipodi.sourceforge.net/DTD/sodipodi-0.dtd"
   xmlns:inkscape="http://www.inkscape.org/namespaces/inkscape"
   width="139.13554mm"
   height="139.41777mm"
   viewBox="0 0 492.99995 493.99997"
   id="svg2"
   version="1.1"
   inkscape:version="0.91 r13725"
   sodipodi:docname="insta.svg">
  <defs
     id="defs4" />
  <sodipodi:namedview
     id="base"
     pagecolor="#ffffff"
     bordercolor="#666666"
     borderopacity="1.0"
     inkscape:pageopacity="0.0"
     inkscape:pageshadow="2"
     inkscape:zoom="0.49497475"
     inkscape:cx="222.37963"
     inkscape:cy="-127.5934"
     inkscape:document-units="px"
     inkscape:current-layer="layer1"
     showgrid="false"
     fit-margin-top="0"
     fit-margin-left="0"
     fit-margin-right="0"
     fit-margin-bottom="0"
     inkscape:window-width="1280"
     inkscape:window-height="682"
     inkscape:window-x="0"
     inkscape:window-y="1"
     inkscape:window-maximized="1" />
  <metadata
     id="metadata7">
    <rdf:RDF>
      <cc:Work
         rdf:about="">
        <dc:format>image/svg+xml</dc:format>
        <dc:type
           rdf:resource="http://purl.org/dc/dcmitype/StillImage" />
        <dc:title></dc:title>
      </cc:Work>
    </rdf:RDF>
  </metadata>
  <g
     inkscape:label="Layer 1"
     inkscape:groupmode="layer"
     id="layer1"
     transform="translate(-528.95103,-1142.5602)">
    <path
       style="fill:#000000"
       d="m 528.95103,1389.5602 0,-247 246.5,0 246.49997,0 0,247 0,247 -246.49997,0 -246.5,0 0,-247 z m 480.99997,0 0,-235 -234.49997,0 -234.5,0 0,235 0,235 234.5,0 234.49997,0 0,-235 z m -380.20227,179.0692 c -15.92183,-5.0909 -28.96108,-18.1455 -33.81245,-33.8524 -1.93914,-6.2782 -1.98525,-9.5901 -1.98525,-142.6121 0,-148.8705 -0.27062,-141.6925 5.76953,-153.0299 3.47317,-6.5191 14.28621,-17.3321 20.80533,-20.8053 11.33737,-6.0402 4.15937,-5.7695 153.0299,-5.7695 133.02202,0 136.33383,0.046 142.61203,1.9852 12.09263,3.735 24.82752,14.244 30.25867,24.9697 5.82958,11.5125 5.52454,3.1129 5.52454,152.1212 0,133.0571 -0.0525,136.8832 -1.96413,143.0685 -4.88039,15.7915 -18.07676,29.0078 -33.81908,33.8701 -6.28288,1.9406 -9.51237,1.984 -143.57213,1.9315 -129.87658,-0.051 -137.44686,-0.1504 -142.84696,-1.877 z m 288.3839,-18.3593 c 6.43691,-3.161 11.13432,-8.006 14.21274,-14.6591 l 2.10566,-4.5508 0,-139.5 0,-139.5 -2.10566,-4.5508 c -3.07842,-6.6532 -7.77583,-11.4982 -14.21274,-14.6592 l -5.6816,-2.79 -139.5,0 -139.5,0 -4.55081,2.1056 c -6.65317,3.0784 -11.49811,7.7759 -14.6591,14.2128 l -2.79009,5.6816 -0.30754,136.5 c -0.21773,96.6347 0.0139,137.9959 0.79312,141.6222 2.17383,10.1164 9.29962,18.0478 19.34687,21.5339 4.88433,1.6948 12.73107,1.7807 143.16755,1.5685 l 138,-0.2246 5.6816,-2.7901 z m -281.27432,-14.0367 c -2.424,-1.2797 -5.75728,-4.2433 -7.40728,-6.5858 l -3,-4.259 -0.26612,-87.4142 -0.26612,-87.4142 33.51612,0 c 18.43387,0 33.51612,0.1891 33.51612,0.4202 0,0.2312 -2.43166,3.9503 -5.40369,8.2648 -7.6321,11.0795 -9.08908,16.5612 -8.98776,33.815 0.0689,11.7355 0.50303,15.5799 2.68384,23.7681 9.23698,34.6816 36.52829,60.6903 71.18987,67.8444 10.96618,2.2633 29.24669,2.4827 39.67977,0.4762 34.87842,-6.7081 62.64994,-31.7541 72.35889,-65.2577 3.71387,-12.8158 5.01225,-26.2139 3.60427,-37.1927 -1.47394,-11.4932 -2.7847,-14.4708 -10.10506,-22.9551 -3.31107,-3.8375 -6.02013,-7.4736 -6.02013,-8.0803 0,-0.7823 9.88843,-1.1029 34.01612,-1.1029 l 34.01612,0 -0.26612,87.4142 -0.26612,87.4142 -3,4.259 c -1.65,2.3425 -4.98328,5.3061 -7.40728,6.5858 l -4.40729,2.3268 -131.68543,0 -131.68543,0 -4.40729,-2.3268 z M 756.063,1463.5731 c -15.03561,-4.0554 -26.26197,-10.9768 -37.51035,-23.126 -7.46204,-8.0597 -14.44256,-20.9346 -17.28853,-31.8869 -2.06782,-7.9578 -2.26113,-24.3434 -0.37668,-31.9284 3.3842,-13.6215 10.92882,-26.9602 20.67394,-36.5508 23.79137,-23.4143 56.70559,-28.4752 85.88965,-13.2064 6.03812,3.1591 10.34367,6.5153 17.55684,13.6856 8.18666,8.1379 10.22583,10.862 14.22295,19 2.56636,5.225 5.34663,12.425 6.17838,16 2.01003,8.6394 1.96906,24.6477 -0.0843,32.9361 -6.15165,24.8312 -25.12828,45.2521 -49.87388,53.6696 -10.99465,3.74 -28.42983,4.3629 -39.38803,1.4072 z m 95.11551,-140.1294 c -5.03341,-2.4915 -9.86023,-7.9763 -11.338,-12.8835 -0.63562,-2.1108 -0.9221,-11.0721 -0.72173,-22.5765 0.32822,-18.845 0.36535,-19.1265 3.05986,-23.1947 1.50018,-2.2651 4.87518,-5.3807 7.5,-6.9236 l 4.77239,-2.8052 19,0 c 10.45,0 20.24885,0.3489 21.77521,0.7753 3.39694,0.9491 10.33898,7.0779 12.28953,10.8499 1.1124,2.1511 1.43526,7.4665 1.43526,23.6293 l 0,20.8539 -2.88486,4.549 c -2.0552,3.2407 -4.41241,5.3101 -8.19635,7.1957 -5.17053,2.5766 -5.80384,2.6468 -23.86513,2.6461 -16.87512,-7e-4 -18.94019,-0.1921 -22.82618,-2.1157 z"
       id="path4119"
       inkscape:connector-curvature="0" />
  </g>
</svg>
