<?xml version="1.0" encoding="UTF-8" standalone="no"?>
<!-- Created with Inkscape (http://www.inkscape.org/) -->

<svg
   xmlns:dc="http://purl.org/dc/elements/1.1/"
   xmlns:cc="http://creativecommons.org/ns#"
   xmlns:rdf="http://www.w3.org/1999/02/22-rdf-syntax-ns#"
   xmlns:svg="http://www.w3.org/2000/svg"
   xmlns="http://www.w3.org/2000/svg"
   xmlns:sodipodi="http://sodipodi.sourceforge.net/DTD/sodipodi-0.dtd"
   xmlns:inkscape="http://www.inkscape.org/namespaces/inkscape"
   id="svg2"
   version="1.1"
   inkscape:version="0.91 r13725"
   width="493"
   height="494"
   viewBox="0 0 493 494"
   sodipodi:docname="insta.svg">
  <metadata
     id="metadata8">
    <rdf:RDF>
      <cc:Work
         rdf:about="">
        <dc:format>image/svg+xml</dc:format>
        <dc:type
           rdf:resource="http://purl.org/dc/dcmitype/StillImage" />
        <dc:title></dc:title>
      </cc:Work>
    </rdf:RDF>
  </metadata>
  <defs
     id="defs6" />
  <sodipodi:namedview
     pagecolor="#ffffff"
     bordercolor="#666666"
     borderopacity="1"
     objecttolerance="10"
     gridtolerance="10"
     guidetolerance="10"
     inkscape:pageopacity="0"
     inkscape:pageshadow="2"
     inkscape:window-width="1279"
     inkscape:window-height="712"
     id="namedview4"
     showgrid="false"
     fit-margin-top="0"
     fit-margin-left="0"
     fit-margin-right="0"
     fit-margin-bottom="0"
     inkscape:zoom="0.4609375"
     inkscape:cx="953.9322"
     inkscape:cy="244.50847"
     inkscape:window-x="0"
     inkscape:window-y="0"
     inkscape:window-maximized="0"
     inkscape:current-layer="svg2" />
  <path
     style="fill:#000000"
     d="M 0,247 0,0 246.5,0 493,0 l 0,247 0,247 -246.5,0 L 0,494 0,247 Z m 481,0 0,-235 -234.5,0 -234.5,0 0,235 0,235 234.5,0 234.5,0 0,-235 z M 73.3242,443.56636 C 64.5118,440.79856 55.6967,432.90814 51.6609,424.17567 L 49.5,419.5 l 0,-173 0,-173 2.1793,-4.717228 C 54.7348,62.168877 62.2424,54.519608 68.8755,51.262166 L 74.5,48.5 l 172,0 172,0 4.7172,2.179273 c 6.6139,3.055498 14.2632,10.563131 17.5206,17.196189 L 443.5,73.5 l 0,173 0,173 -2.7622,5.62454 c -3.2574,6.63306 -10.9067,14.14069 -17.5206,17.19619 L 418.5,444.5 248,444.68895 c -138.2885,0.15326 -171.2889,-0.0588 -174.6758,-1.12259 z m 344.1533,-12.68174 c 5.0975,-1.41518 10.9919,-7.30967 12.4071,-12.40717 1.5639,-5.63302 1.5639,-338.321881 0,-343.954904 -1.4152,-5.097493 -7.3096,-10.991984 -12.4071,-12.407162 -5.6327,-1.563763 -336.3222,-1.563763 -341.9549,0 -5.0975,1.415178 -10.992,7.309669 -12.4072,12.407162 -1.5313,5.515799 -1.5669,338.311364 -0.037,343.821874 1.3993,5.03928 6.4245,10.38659 11.4213,12.15343 3.3853,1.197 29.7416,1.42025 171.5,1.45268 119.248,0.0273 168.6458,-0.27978 171.4775,-1.06591 z M 133.7824,383.06216 C 123.3917,379.00005 113.5728,368.81046 109.8039,358.17838 108.7628,355.24132 108.5,332.73438 108.5,246.5 l 0,-108 2.2644,-5.5 c 4.744,-11.5229 14.7948,-20.97187 25.4044,-23.88305 3.2519,-0.89231 31.2433,-1.11725 112.3312,-0.9027 l 108,0.28575 5.7678,2.83225 c 8.0246,3.94047 15.1391,11.19315 19.0229,19.39249 L 384.5,137.5 l 0,108 c 0,101.40156 -0.1099,108.315 -1.799,113.1557 -2.549,7.30489 -8.6854,15.4049 -14.8875,19.65135 -10.4249,7.13775 -2.3739,6.69803 -121.6892,6.64618 -102.1607,-0.0444 -107.8638,-0.14041 -112.3419,-1.89107 z m 224.7384,-13.21931 c 4.1914,-2.29935 8.289,-6.58605 10.8297,-11.32974 L 371.5,354.5 l 0,-108 0,-108 -2.9183,-5.26725 C 365.1645,127.0651 358.8,122.37829 352.648,121.49926 350.3666,121.17328 301.025,121.0401 243,121.20329 c -95.994,0.26997 -105.7722,0.44603 -108.5208,1.95386 -4.1914,2.29935 -8.2889,6.58605 -10.8297,11.32974 L 121.5,138.5 l 0,108 0,108 2.2275,4 c 2.4948,4.48001 3.8205,6.16178 6.9727,8.84508 5.5053,4.68647 3.1519,4.59879 117.2998,4.3702 97.9522,-0.19616 107.7683,-0.36246 110.5208,-1.87243 z M 140.9619,358.75 c -3.3174,-1.67288 -5.0239,-3.40424 -6.6529,-6.75 -2.1853,-4.48847 -2.1911,-4.66972 -2.25,-70.75 L 132,215 l 26.5,0 c 14.575,0 26.5,0.34747 26.5,0.77216 0,0.42468 -1.2844,2.33718 -2.8543,4.25 -6.4133,7.81405 -7.6457,12.24323 -7.6457,27.47784 0,11.89706 0.7144,17.442 3.0276,23.5 9.0582,23.72212 25.0145,38.90542 48.4724,46.1243 10.5253,3.23902 32.2337,3.22377 42,-0.0295 21.1114,-7.03244 34.5743,-18.46885 43.8243,-37.22752 2.8117,-5.702 5.35,-11.71728 5.6407,-13.36728 0.2906,-1.65 1.0391,-5.88711 1.6633,-9.4158 1.2011,-6.79071 0.6742,-19.21044 -1.066,-25.12738 -0.5731,-1.94876 -3.5315,-6.56126 -6.5742,-10.25 L 305.956,215 l 27.522,0 27.522,0 0,66.03324 0,66.03325 -2.4624,4.85936 c -1.866,3.68243 -3.5168,5.36976 -6.8157,6.96675 C 347.3828,360.99314 347.04,361 246.3962,361 l -100.9724,0 -4.4619,-2.25 z m 93.2536,-55.70252 c -11.7989,-3.19843 -20.2677,-8.25806 -28.4905,-17.02159 -8.3369,-8.88514 -11.0087,-13.44342 -14.3321,-24.45212 -5.81,-19.2452 -0.4512,-39.02007 14.8348,-54.74248 18.0583,-18.5738 42.9142,-22.84029 66.157,-11.35579 5.9999,2.9646 9.2677,5.50185 15.1787,11.78531 12.1502,12.91576 16.4366,23.15273 16.4366,39.25485 0,10.32181 -1.4903,16.91933 -5.7566,25.48434 -4.832,9.70074 -16.3122,21.43009 -25.6719,26.22907 -11.949,6.1266 -26.696,7.97916 -38.356,4.81841 z M 301.9582,190.46015 297.5,185.9203 297.1821,169.41387 c -0.3131,-16.25989 -0.2789,-16.57297 2.2931,-20.96183 4.4554,-7.60241 7.793,-8.64597 26.449,-8.26958 15.5885,0.3145 15.7751,0.34511 19.5135,3.19936 5.7764,4.41025 6.5623,7.36661 6.5623,24.68493 0,17.23944 -0.8959,20.43138 -6.875,24.49431 C 341.6572,194.91745 340.9414,195 323.9761,195 l -17.5597,0 -4.4582,-4.53985 z"
     id="path3424"
     inkscape:connector-curvature="0" />
</svg>
