<?xml version="1.0" encoding="UTF-8" standalone="no"?>
<!-- Created with Inkscape (http://www.inkscape.org/) -->

<svg
   xmlns:dc="http://purl.org/dc/elements/1.1/"
   xmlns:cc="http://creativecommons.org/ns#"
   xmlns:rdf="http://www.w3.org/1999/02/22-rdf-syntax-ns#"
   xmlns:svg="http://www.w3.org/2000/svg"
   xmlns="http://www.w3.org/2000/svg"
   xmlns:sodipodi="http://sodipodi.sourceforge.net/DTD/sodipodi-0.dtd"
   xmlns:inkscape="http://www.inkscape.org/namespaces/inkscape"
   width="144.49553mm"
   height="144.49777mm"
   viewBox="0 0 511.99202 511.99998"
   id="svg2"
   version="1.1"
   inkscape:version="0.91 r13725"
   sodipodi:docname="phone.svg">
  <defs
     id="defs4" />
  <sodipodi:namedview
     id="base"
     pagecolor="#ffffff"
     bordercolor="#666666"
     borderopacity="1.0"
     inkscape:pageopacity="0.0"
     inkscape:pageshadow="2"
     inkscape:zoom="0.49497475"
     inkscape:cx="809.70563"
     inkscape:cy="114.26451"
     inkscape:document-units="px"
     inkscape:current-layer="layer1"
     showgrid="false"
     fit-margin-top="0"
     fit-margin-left="0"
     fit-margin-right="0"
     fit-margin-bottom="0"
     inkscape:window-width="1280"
     inkscape:window-height="682"
     inkscape:window-x="0"
     inkscape:window-y="1"
     inkscape:window-maximized="1" />
  <metadata
     id="metadata7">
    <rdf:RDF>
      <cc:Work
         rdf:about="">
        <dc:format>image/svg+xml</dc:format>
        <dc:type
           rdf:resource="http://purl.org/dc/dcmitype/StillImage" />
        <dc:title></dc:title>
      </cc:Work>
    </rdf:RDF>
  </metadata>
  <g
     inkscape:label="Layer 1"
     inkscape:groupmode="layer"
     id="layer1"
     transform="translate(58.374965,-1689.6669)">
    <path
       style="fill:#000000"
       d="m 52.621007,1945.6669 0,-256 145.000003,0 145,0 0,256 0,256 -145,0 -145.000003,0 0,-256 z m 273.000003,196.5 0,-42.5 -128,0 -128.000003,0 0,42.5 0,42.5 128.000003,0 128,0 0,-42.5 z m -137.80432,32.4249 c -5.28068,-1.6145 -12.87877,-6.737 -16.18535,-10.9119 -14.32632,-18.0884 -8.39336,-43.1119 12.48192,-52.6449 12.01978,-5.4891 27.29925,-2.8182 36.80793,6.4342 17.06893,16.6088 12.5903,44.6545 -8.80528,55.1398 -5.599,2.7439 -18.39474,3.788 -24.29922,1.9828 z m 19.64236,-18.8096 c 1.76398,-1.256 4.09705,-4.0279 5.1846,-6.1597 3.85947,-7.5652 1.84389,-15.6231 -5.34487,-21.3678 -3.28233,-2.623 -4.64933,-3.0545 -9.67777,-3.0545 -5.02844,0 -6.39544,0.4315 -9.67777,3.0545 -7.18876,5.7447 -9.20434,13.8026 -5.34487,21.3678 1.82748,3.5822 5.37549,6.876 9.02264,8.3763 3.34525,1.376 12.61447,0.079 15.83804,-2.2166 z m 118.16196,-235.6153 0,-162.5 -128,0 -128.000003,0 0,162.5 0,162.5 128.000003,0 128,0 0,-162.5 z m 0,-196.5 0,-17 -128,0 -128.000003,0 0,17 0,17 128.000003,0 128,0 0,-17 z m -165.71515,7.5552 c -5.05292,-2.2463 -6.06918,-8.9365 -2.02111,-13.3052 2.03244,-2.1934 2.60443,-2.25 22.73626,-2.25 20.29367,0 20.68903,0.04 22.82569,2.3145 3.09764,3.2972 2.91422,8.6411 -0.40368,11.7612 -2.51657,2.3665 -3.02286,2.4301 -21.25,2.6666 -14.43894,0.1873 -19.40091,-0.082 -21.88716,-1.1871 z m 59.95754,-0.049 c -5.60817,-2.4373 -6.63275,-9.201 -2.04172,-13.4782 1.79244,-1.6699 3.52395,-2.0277 9.81358,-2.0277 6.63557,0 7.91054,0.2951 9.72201,2.25 2.42568,2.6178 2.96189,5.1352 1.93104,9.0659 -1.33847,5.1037 -12.02082,7.4079 -19.42491,4.19 z m -249.773153,136.333 c -8.35528,-7.3361 -19.18871,-24.9037 -23.33404,-37.8389 -2.80212,-8.7438 -5.13609,-22.7903 -5.13118,-30.881 0.0147,-24.1886 10.33884,-50.4109 26.32743,-66.869 4.29571,-4.4219 5.66966,-5.25 8.71008,-5.25 4.71728,0 7.95847,3.3137 7.95847,8.1364 0,2.8529 -1.1221,4.8006 -6.01219,10.4356 -7.1677,8.2595 -14.04117,21.0766 -17.15871,31.9962 -2.9338,10.276 -3.19927,30.4482 -0.53051,40.3108 3.81731,14.1071 9.13771,24.3217 18.31701,35.1667 6.29021,7.4316 7.03863,11.391 2.92986,15.4998 -3.45882,3.4588 -7.60862,3.216 -12.07622,-0.7066 z m 442.985363,0.7066 c -4.1088,-4.1088 -3.3604,-8.0682 2.9298,-15.4998 9.1793,-10.845 14.4997,-21.0596 18.317,-35.1667 2.6771,-9.8935 2.4036,-30.0321 -0.5484,-40.379 -3.0572,-10.7159 -10.0556,-23.709 -17.2545,-32.0345 -4.8732,-5.6358 -5.8985,-7.4556 -5.8985,-10.4692 0,-4.74 3.298,-7.9963 8.0986,-7.9963 2.8714,0 4.3492,0.9053 8.57,5.25 15.9885,16.4581 26.3127,42.6804 26.3274,66.869 0.01,8.0907 -2.3291,22.1372 -5.1312,30.881 -4.1453,12.9352 -14.9788,30.5028 -23.334,37.8389 -4.4676,3.9226 -8.6174,4.1654 -12.0762,0.7066 z m -36,-17 c -3.6713,-3.6713 -3.2956,-8.203 1.1066,-13.3459 9.8837,-11.5469 14.4388,-23.4072 14.4388,-37.5948 0,-15.0182 -4.1795,-26.577 -13.601,-37.6145 -5.3862,-6.3101 -5.9134,-10.6823 -1.753,-14.538 5.4215,-5.0245 11.5533,-1.9394 19.5498,9.836 9.0537,13.3322 12.7581,25.5871 12.7868,42.3017 0.031,18.1036 -6.5567,35.5666 -17.924,47.5125 -6.5247,6.8568 -10.3001,7.7469 -14.604,3.443 z M 7.8868567,1849.6878 c -3.96484,-2.4174 -11.177,-12.0494 -15.23434,-20.3457 -12.9062397,-26.3903 -7.9118097,-60.4293 11.91975,-81.2376 5.10951,-5.3612 9.5658203,-6.0111 13.5942003,-1.9828 3.93957,3.9396 3.32842,8.1413 -2.11111,14.5138 -8.9418703,10.4757 -13.4830203,22.6269 -13.5199303,36.1768 -0.0399,14.6541 4.35793,26.6345 14.0278903,38.2138 5.87505,7.0351 5.35839,13.0555 -1.33891,15.6018 -3.57072,1.3576 -3.56873,1.3578 -7.3375503,-0.9401 z"
       id="path4205"
       inkscape:connector-curvature="0" />
  </g>
</svg>
