<?xml version="1.0" encoding="UTF-8" standalone="no"?>
<!-- Created with Inkscape (http://www.inkscape.org/) -->

<svg
   xmlns:dc="http://purl.org/dc/elements/1.1/"
   xmlns:cc="http://creativecommons.org/ns#"
   xmlns:rdf="http://www.w3.org/1999/02/22-rdf-syntax-ns#"
   xmlns:svg="http://www.w3.org/2000/svg"
   xmlns="http://www.w3.org/2000/svg"
   xmlns:sodipodi="http://sodipodi.sourceforge.net/DTD/sodipodi-0.dtd"
   xmlns:inkscape="http://www.inkscape.org/namespaces/inkscape"
   id="svg2"
   version="1.1"
   inkscape:version="0.91 r13725"
   width="493"
   height="494"
   viewBox="0 0 493 494"
   sodipodi:docname="vk.svg">
  <metadata
     id="metadata8">
    <rdf:RDF>
      <cc:Work
         rdf:about="">
        <dc:format>image/svg+xml</dc:format>
        <dc:type
           rdf:resource="http://purl.org/dc/dcmitype/StillImage" />
        <dc:title></dc:title>
      </cc:Work>
    </rdf:RDF>
  </metadata>
  <defs
     id="defs6" />
  <sodipodi:namedview
     pagecolor="#ffffff"
     bordercolor="#666666"
     borderopacity="1"
     objecttolerance="10"
     gridtolerance="10"
     guidetolerance="10"
     inkscape:pageopacity="0"
     inkscape:pageshadow="2"
     inkscape:window-width="1279"
     inkscape:window-height="712"
     id="namedview4"
     showgrid="false"
     fit-margin-top="0"
     fit-margin-left="0"
     fit-margin-right="0"
     fit-margin-bottom="0"
     inkscape:zoom="0.4609375"
     inkscape:cx="80.9831"
     inkscape:cy="315.44059"
     inkscape:window-x="0"
     inkscape:window-y="0"
     inkscape:window-maximized="0"
     inkscape:current-layer="svg2" />
  <path
     style="fill:#000000"
     d="M 0,247 0,0 246.5,0 493,0 l 0,247 0,246.99999 -246.5,0 -246.5,0 L 0,247 Z m 481,0 0,-235 -234.5,0 -234.5,0 0,235 0,234.99999 234.5,0 234.5,0 L 481,247 Z M 234.5,360.91189 C 200.85824,357.45485 170.97757,342.88893 145.44781,317.50167 124.37859,296.55005 99.782587,260.47432 75.222497,214.5 64.039507,193.56641 46.04359,155.04346 45.29631,150.4385 c -0.73856,-4.55118 1.66935,-8.05728 6.44423,-9.38331 4.845837,-1.34573 63.50054,-1.39377 68.31631,-0.0559 5.46767,1.51892 8.28734,5.31356 15.23343,20.50075 9.71827,21.24839 9.66444,21.1398 17.10035,34.5 14.86144,26.70178 29.92886,45.81308 37.41563,47.45745 6.37151,1.39942 11.21428,-4.70953 13.14884,-16.58668 2.70488,-16.60652 2.15563,-50.87011 -1.00942,-62.96973 -2.05964,-7.87375 -8.41915,-13.98425 -16.73284,-16.07767 -2.41075,-0.60703 -4.61187,-1.69965 -4.89138,-2.42804 -0.81117,-2.11389 3.40846,-7.15202 8.49389,-10.14147 L 193.5,132.5 l 37,-0.28865 c 36.85351,-0.2875 37.01782,-0.27958 41.5,2 3.14171,1.59784 5.10368,3.49601 6.5,6.28865 1.88235,3.76471 2.02941,6.55882 2.5,47.5 0.49013,42.64091 0.54417,43.58263 2.73661,47.68392 4.94997,9.25967 9.92844,9.68233 18.44661,1.56608 15.1352,-14.42104 35.30794,-47.62257 47.75823,-78.60338 4.70526,-11.70841 7.41535,-15.72335 11.85444,-17.56207 2.04888,-0.84868 13.50726,-1.09292 41.27025,-0.87971 34.7664,0.26699 38.74812,0.46674 41.72721,2.09326 4.77266,2.60576 5.84755,5.61477 4.42628,12.39072 -2.70849,12.91282 -13.06246,29.73923 -42.64996,69.31118 -9.66388,12.925 -18.69546,25.72585 -20.07018,28.44634 -3.06064,6.05684 -3.21281,11.82629 -0.43658,16.55366 1.13049,1.925 10.93855,12.275 21.79569,23 25.88547,25.57042 37.54102,40.03195 40.68547,50.48016 2.59599,8.62583 -0.93096,16.36384 -8.48418,18.61398 -2.32478,0.69257 -15.52976,0.9268 -38.05989,0.67512 -38.69675,-0.43228 -40.16625,-0.65608 -50.67252,-7.71741 -3.36426,-2.26114 -12.60171,-11.22367 -21.85396,-21.20358 -17.65388,-19.0423 -22.7094,-23.42669 -28.2005,-24.45683 -10.45602,-1.96156 -17.13218,9.27067 -19.25717,32.39898 -1.02905,11.20014 -2.18894,14.54855 -6.02123,17.38226 -4.83292,3.5736 -22.21105,4.72079 -41.49462,2.73921 z"
     id="path3661"
     inkscape:connector-curvature="0" />
</svg>
