<?xml version="1.0" encoding="UTF-8" standalone="no"?>
<svg
   xmlns:dc="http://purl.org/dc/elements/1.1/"
   xmlns:cc="http://creativecommons.org/ns#"
   xmlns:rdf="http://www.w3.org/1999/02/22-rdf-syntax-ns#"
   xmlns:svg="http://www.w3.org/2000/svg"
   xmlns="http://www.w3.org/2000/svg"
   xmlns:sodipodi="http://sodipodi.sourceforge.net/DTD/sodipodi-0.dtd"
   xmlns:inkscape="http://www.inkscape.org/namespaces/inkscape"
   width="461"
   height="458.70001"
   viewBox="0 0 461 458.70001"
   id="svg2"
   version="1.1"
   inkscape:version="0.91 r13725"
   sodipodi:docname="vk.svg">
  <metadata
     id="metadata9">
    <rdf:RDF>
      <cc:Work
         rdf:about="">
        <dc:format>image/svg+xml</dc:format>
        <dc:type
           rdf:resource="http://purl.org/dc/dcmitype/StillImage" />
        <dc:title></dc:title>
      </cc:Work>
    </rdf:RDF>
  </metadata>
  <defs
     id="defs7" />
  <sodipodi:namedview
     pagecolor="#ffffff"
     bordercolor="#666666"
     borderopacity="1"
     objecttolerance="10"
     gridtolerance="10"
     guidetolerance="10"
     inkscape:pageopacity="0"
     inkscape:pageshadow="2"
     inkscape:window-width="1278"
     inkscape:window-height="704"
     id="namedview5"
     showgrid="false"
     fit-margin-top="0"
     fit-margin-left="0"
     fit-margin-right="0"
     fit-margin-bottom="-2.3"
     inkscape:zoom="0.84285714"
     inkscape:cx="-126.76602"
     inkscape:cy="256.37044"
     inkscape:window-x="0"
     inkscape:window-y="0"
     inkscape:window-maximized="0"
     inkscape:current-layer="svg2" />
  <path
     style="fill:#010101"
     d="M 0,230.5 0,0 230.5,0 461,0 461,230.5 461,461 230.5,461 0,461 0,230.5 Z m 460,0 L 460,1 230.5,1 1,1 1,230.5 1,460 l 229.5,0 229.5,0 0,-229.5 z M 220.5,336.36343 C 189.6685,333.0512 166.1678,322.98462 142.4514,302.93111 120.9806,284.77637 94.6458,248.06957 69.5398,201.30291 58.0162,179.83716 40.8566,143.29727 40.2742,138.98454 c -0.8032,-5.94865 1.8212,-8.0534 11.2768,-9.04397 9.8485,-1.03173 48.0713,-1.06186 55.2248,-0.0435 9.3624,1.33276 9.8032,1.91703 23.5902,31.26971 9.5248,20.27835 25.9566,47.17992 34.4434,56.3897 8.0945,8.78407 15.1034,10.91239 19.1201,5.80602 4.0924,-5.20265 5.2633,-11.75508 5.8064,-32.49361 0.9987,-38.13201 -2.3337,-48.79629 -16.7818,-53.70486 -2.9997,-1.01914 -5.5853,-2.52346 -5.7456,-3.34294 -0.4338,-2.21779 8.0119,-9.5109 12.4368,-10.73957 2.3787,-0.66049 16.5055,-1.07247 36.8928,-1.07591 32.2786,-0.005 33.1407,0.0461 37.5,2.24442 7.5988,3.83184 7.8665,5.5164 7.9181,49.82186 0.048,41.5478 0.4253,44.54707 6.2098,49.41441 4.5139,3.79818 7.1628,3.26156 13.5065,-2.73627 14.2794,-13.50089 33.347,-44.91321 45.8497,-75.53374 4.416,-10.81547 8.0754,-14.73365 14.6856,-15.72435 2.3607,-0.35381 18.9172,-0.49673 36.7922,-0.3176 30.1288,0.30193 32.7914,0.47161 36.4948,2.32569 7.1116,3.56041 7.1001,9.20787 -0.05,24.39107 -4.8588,10.31809 -13.2282,22.74854 -34.3078,50.95497 -10.007,13.39031 -19.0817,26.08489 -20.1659,28.21016 -2.3851,4.67506 -2.5242,9.93352 -0.3769,14.24346 0.877,1.76019 10.8895,12.42909 22.25,23.70868 28.2264,28.02528 37.5402,40.67115 37.5402,50.97071 0,2.89371 -0.6997,5.85279 -1.7701,7.4865 -3.3979,5.18579 -5.8514,5.53445 -38.946,5.53445 -16.7176,0 -32.8195,-0.45238 -35.7821,-1.00528 -12.6058,-2.35265 -17.3115,-6.05631 -44.9531,-35.38079 C 288.5808,289.63131 284.7702,287 279.2177,287 c -3.8209,0 -4.9654,0.51266 -7.7606,3.47644 -4.3364,4.59797 -7.2264,13.60399 -8.4346,26.28456 -1.7035,17.87844 -3.6231,19.42765 -24.5211,19.78962 -7.7009,0.13339 -15.8017,0.0491 -18.0017,-0.18719 z"
     id="path3597"
     inkscape:connector-curvature="0" />
</svg>
