<?xml version="1.0" encoding="UTF-8" standalone="no"?>
<svg
   xmlns:dc="http://purl.org/dc/elements/1.1/"
   xmlns:cc="http://creativecommons.org/ns#"
   xmlns:rdf="http://www.w3.org/1999/02/22-rdf-syntax-ns#"
   xmlns:svg="http://www.w3.org/2000/svg"
   xmlns="http://www.w3.org/2000/svg"
   xmlns:sodipodi="http://sodipodi.sourceforge.net/DTD/sodipodi-0.dtd"
   xmlns:inkscape="http://www.inkscape.org/namespaces/inkscape"
   width="461"
   height="461"
   viewBox="0 0 461 461"
   id="svg2"
   version="1.1"
   inkscape:version="0.91 r13725"
   sodipodi:docname="youtube.svg">
  <metadata
     id="metadata9">
    <rdf:RDF>
      <cc:Work
         rdf:about="">
        <dc:format>image/svg+xml</dc:format>
        <dc:type
           rdf:resource="http://purl.org/dc/dcmitype/StillImage" />
        <dc:title></dc:title>
      </cc:Work>
    </rdf:RDF>
  </metadata>
  <defs
     id="defs7" />
  <sodipodi:namedview
     pagecolor="#ffffff"
     bordercolor="#666666"
     borderopacity="1"
     objecttolerance="10"
     gridtolerance="10"
     guidetolerance="10"
     inkscape:pageopacity="0"
     inkscape:pageshadow="2"
     inkscape:window-width="1278"
     inkscape:window-height="704"
     id="namedview5"
     showgrid="false"
     fit-margin-top="0"
     fit-margin-left="0"
     fit-margin-right="0"
     fit-margin-bottom="-2.3"
     inkscape:zoom="0.84285714"
     inkscape:cx="465.62384"
     inkscape:cy="263.39925"
     inkscape:window-x="0"
     inkscape:window-y="0"
     inkscape:window-maximized="0"
     inkscape:current-layer="svg2" />
  <path
     style="fill:#020202"
     d="M 0,230.5 0,0 230.5,0 461,0 461,230.5 461,461 230.5,461 0,461 0,230.5 Z m 460,0 L 460,1 230.5,1 1,1 1,230.5 1,460 l 229.5,0 229.5,0 0,-229.5 z M 86,420.97132 C 63.66317,416.91817 42.95473,399.9995 34.31987,378.74897 29.5967,367.12519 29,360.68926 29,321.36987 c 0,-42.30859 0.52333,-46.48691 7.68046,-61.32118 3.84441,-7.96815 5.91423,-10.79727 13.18977,-18.02838 C 59.37607,232.57251 67.246,227.82428 80,223.84186 l 7.5,-2.34186 143,0 143,0 7.5,2.34186 c 12.754,3.98242 20.62393,8.73065 30.12977,18.17845 7.27554,7.23111 9.34536,10.06023 13.18977,18.02838 7.15713,14.83427 7.68046,19.01259 7.68046,61.32118 0,27.29311 -0.35588,38.3142 -1.41613,43.85562 -4.76044,24.8806 -21.65063,44.26757 -46.6197,53.51124 L 376.5,421.5 l -143,0.14394 C 154.85,421.72314 88.475,421.42043 86,420.97132 Z m 86.8295,-29.07352 c 2.38123,-1.02062 6.06021,-3.22642 8.17551,-4.90177 4.20448,-3.33001 4.4174,-3.24129 5.40896,2.25397 l 0.67666,3.75 10.95468,0 10.95469,0 0,-54 0,-54 -12,0 -12,0 0,43.91844 0,43.91844 -3.36803,2.08156 c -3.44059,2.1264 -8.1283,2.68798 -10.40024,1.24594 C 168.45159,374.39977 168,367.49565 168,326.7566 L 168,285 l -11.5,0 -11.5,0 0.006,47.25 c 0.003,28.03537 0.40739,48.69642 0.99367,50.80685 1.34947,4.85771 5.95383,8.98003 11.70459,10.47922 5.42259,1.41365 8.87847,1.03934 15.12566,-1.63827 z m 117.58678,-0.26386 c 2.39783,-1.30655 4.7242,-3.68485 6,-6.13394 2.0162,-3.87038 2.08372,-5.37724 2.08372,-46.5 0,-41.0906 -0.0689,-42.63133 -2.07745,-46.46033 -4.5633,-8.6992 -17.60586,-11.18079 -27.42255,-5.21766 -2.475,1.50344 -5.9625,3.9037 -7.75,5.33391 l -3.25,2.6004 0,-23.62816 0,-23.62816 -11.5,0 -11.5,0 0,72.5 0,72.5 11.5,0 11.5,0 0,-5.06695 0,-5.06695 4.25,3.44242 c 10.71359,8.67781 19.10285,10.26398 28.16628,5.32542 z M 261.75,374.93191 258,372.95222 l 0,-33.79885 0,-33.79886 4.35953,-2.17725 C 267.7716,300.47433 270.43005,300.43005 273,303 c 1.92105,1.92105 2,3.33333 2,35.77749 0,28.95281 -0.22236,34.09495 -1.5567,36 -1.96974,2.81219 -6.54443,2.8726 -11.6933,0.15442 z m 108.02291,17.35481 c 6.75405,-2.0173 13.3383,-7.78138 15.99098,-13.99904 2.02925,-4.75642 2.62772,-9.43672 2.37041,-18.53768 L 388,355 l -11.38172,0 -11.38173,0 -0.71143,8.75 c -0.85618,10.5303 -2.64183,13.25 -8.69943,13.25 -7.52495,0 -9.16145,-4.45544 -8.63168,-23.5 l 0.30599,-11 20.25,-0.27071 20.25,-0.2707 0,-18.11328 c 0,-10.8543 -0.4651,-19.66563 -1.16056,-21.98687 -1.60108,-5.34392 -7.07763,-11.41904 -13.20159,-14.64445 -4.8051,-2.53079 -5.94741,-2.70374 -17.63785,-2.67039 -13.85757,0.0395 -18.79645,1.47175 -24.35053,7.0614 -7.26972,7.31629 -8.60985,14.69335 -8.60985,47.395 0,25.49228 0.90646,35.01382 3.89014,40.86232 6.49781,12.73676 24.40793,17.93064 42.84315,12.4244 z M 347,317.54705 c 0,-5.19912 0.49962,-10.5495 1.11027,-11.88973 1.90615,-4.18354 7.41059,-5.74401 12.33961,-3.4982 3.2959,1.50171 4.53741,6.03412 4.54454,16.59088 l 0.006,8.25 -9,0 -9,0 0,-9.45295 z M 116,330 l 0,-63 12,0 12,0 0,-9.5 0,-9.5 -36.5,0 -36.5,0 0,9.5 0,9.5 11.5,0 11.5,0 0,63 0,63 13,0 13,0 0,-63 z M 212,199.64195 C 201.20796,196.40859 195.5897,191.97094 191.86955,183.74164 189.50861,178.51905 189.5,178.36006 189.5,140 c 0,-38.44922 0.003,-38.50697 2.38935,-43.78768 4.57268,-10.11941 14.14747,-15.82255 28.46368,-16.95412 19.68414,-1.55587 34.15615,6.69761 38.16616,21.76643 2.08508,7.83529 2.11014,70.02175 0.0314,77.83184 -2.65576,9.97784 -8.53395,16.38073 -18.05056,19.66176 -6.60918,2.27864 -22.54764,2.90707 -28.5,1.12372 z m 16.48327,-18.63559 c 5.12952,-1.95024 5.51687,-4.84562 5.51518,-41.22424 -0.001,-29.70224 -0.18962,-33.65312 -1.75,-36.73129 -2.91547,-5.75135 -11.19334,-6.47894 -15.23626,-1.33919 -1.93017,2.4538 -2.01159,3.98949 -1.99745,37.67322 0.0158,37.53215 0.18012,38.88944 5.00497,41.33069 3.01522,1.52563 5.03336,1.59497 8.46356,0.29081 z M 299.5,199.43655 c -4.73537,-1.68404 -10.01854,-7.27927 -10.86378,-11.50547 -0.33129,-1.65641 -0.62569,-26.50603 -0.65424,-55.22137 L 287.93008,80.5 l 12.78496,0 12.78497,0 0.5,49.33114 c 0.48013,47.37041 0.57715,49.38754 2.44113,50.75 2.718,1.98671 5.43098,1.77392 10.59698,-0.83114 L 331.5,177.5 332,129 l 0.5,-48.5 12.75,-0.27988 12.75,-0.27987 0,59.52987 0,59.52988 -11.98818,0 -11.98818,0 -0.64317,-4.02216 c -0.35375,-2.21219 -0.98245,-4.23185 -1.39711,-4.48813 -0.41467,-0.25628 -3.73681,1.53427 -7.38253,3.97899 -9.83738,6.59669 -16.70097,7.9551 -25.10083,4.96785 z M 128,165.97209 128,132.94418 113.07498,88.22209 C 104.86622,63.62494 97.83847,42.70049 97.45776,41.72332 c -0.6476,-1.66218 0.29669,-1.75885 14.65225,-1.5 l 15.34445,0.27668 6.69265,27 c 3.68096,14.85 6.9756,28.2906 7.32144,29.868 0.34583,1.5774 0.83647,2.66031 1.09031,2.40647 0.25384,-0.25384 1.3546,-4.69444 2.44612,-9.868 1.09153,-5.17356 4.3439,-18.51897 7.2275,-29.65647 l 5.2429,-20.25 14.68297,0 14.68296,0 L 171.42066,86.2379 156,132.47581 l 0,33.26209 0,33.2621 -14,0 -14,0 0,-33.02791 z"
     id="path3511"
     inkscape:connector-curvature="0" />
</svg>
