<?xml version="1.0" encoding="UTF-8" standalone="no"?>
<!-- Created with Inkscape (http://www.inkscape.org/) -->

<svg
   xmlns:dc="http://purl.org/dc/elements/1.1/"
   xmlns:cc="http://creativecommons.org/ns#"
   xmlns:rdf="http://www.w3.org/1999/02/22-rdf-syntax-ns#"
   xmlns:svg="http://www.w3.org/2000/svg"
   xmlns="http://www.w3.org/2000/svg"
   xmlns:sodipodi="http://sodipodi.sourceforge.net/DTD/sodipodi-0.dtd"
   xmlns:inkscape="http://www.inkscape.org/namespaces/inkscape"
   id="svg2"
   version="1.1"
   inkscape:version="0.91 r13725"
   width="497.00009"
   height="498"
   viewBox="0 0 497.00009 498"
   sodipodi:docname="youtube.svg">
  <metadata
     id="metadata8">
    <rdf:RDF>
      <cc:Work
         rdf:about="">
        <dc:format>image/svg+xml</dc:format>
        <dc:type
           rdf:resource="http://purl.org/dc/dcmitype/StillImage" />
        <dc:title></dc:title>
      </cc:Work>
    </rdf:RDF>
  </metadata>
  <defs
     id="defs6" />
  <sodipodi:namedview
     pagecolor="#ffffff"
     bordercolor="#666666"
     borderopacity="1"
     objecttolerance="10"
     gridtolerance="10"
     guidetolerance="10"
     inkscape:pageopacity="0"
     inkscape:pageshadow="2"
     inkscape:window-width="1279"
     inkscape:window-height="712"
     id="namedview4"
     showgrid="false"
     fit-margin-top="0"
     fit-margin-left="0"
     fit-margin-right="0"
     fit-margin-bottom="0"
     inkscape:zoom="0.4609375"
     inkscape:cx="-74.8983"
     inkscape:cy="-30.50849"
     inkscape:window-x="0"
     inkscape:window-y="0"
     inkscape:window-maximized="0"
     inkscape:current-layer="svg2" />
  <path
     style="fill:#000000"
     d="M 0,249 0,0 l 248.5001,0 248.5,0 0,249 0,249 -248.5,0 L 0,498 0,249 Z m 487.0001,0 0,-239 -238.5,0 L 10,10 l 0,239 0,239 238.5001,0 238.5,0 0,-239 z M 103.174,434.8919 c -2.9293,-0.49354 -8.6976,-2.30094 -12.8185,-4.01645 C 69.9188,422.36761 55.5529,406.49225 48.8419,385 c -2.2996,-7.36464 -2.3418,-8.25801 -2.3418,-49.5 0,-47.28849 0.013,-47.40139 7.2248,-62.46818 3.8946,-8.13651 5.815,-10.74338 13.6536,-18.53493 10.2496,-10.18801 18.7863,-15.0863 32.3283,-18.54976 C 107.0752,234.06261 111.8757,234 249.0001,234 c 137.1244,0 141.9249,0.0626 149.2933,1.94713 13.542,3.46346 22.0786,8.36175 32.3283,18.54976 7.8386,7.79155 9.7589,10.39842 13.6535,18.53493 7.2118,15.06679 7.2249,15.17969 7.2249,62.46818 0,41.24199 -0.042,42.13536 -2.3419,49.5 -3.9904,12.77953 -8.7282,20.6269 -18.1297,30.02838 -8.9576,8.95753 -16.3574,13.58051 -29.0284,18.13516 l -6.5,2.33646 -143.5,0.14462 c -80.8662,0.0815 -145.8247,-0.24705 -148.8261,-0.75272 z m 86.5005,-28.40033 c 1.9856,-0.82964 5.7972,-3.07964 8.4702,-5 2.673,-1.92037 5.0564,-3.49157 5.2964,-3.49157 0.2401,0 0.7422,2.03924 1.116,4.53164 l 0.6796,4.53165 10.9012,-0.28165 10.9013,-0.28164 0,-54 0,-54 -11.7679,0 -11.7678,0 -0.5,44.46684 -0.5,44.46684 -4.8219,1.99801 c -4.3647,1.80856 -5.0723,1.85748 -7.4626,0.51584 -1.6954,-0.95165 -2.913,-2.72876 -3.4016,-4.96485 C 186.3995,383.0672 186.0644,362.825 186.0734,340 l 0.016,-41.5 -11.5804,0 -11.5805,0 0.056,48.23276 c 0.036,31.07688 0.4287,49.21704 1.1042,51 1.4027,3.70223 4.753,7.22793 8.4152,8.8556 4.0496,1.79986 12.7525,1.75081 17.1745,-0.0968 z m 119.3409,-0.78124 c 2.8244,-1.49363 5.052,-3.66654 6.4072,-6.25 2.0097,-3.8311 2.0775,-5.36352 2.0775,-46.96033 0,-41.59681 -0.068,-43.12923 -2.0775,-46.96033 -2.7395,-5.22239 -8.9191,-8.54751 -15.8298,-8.51771 -5.8863,0.0254 -11.1339,2.1791 -17.8427,7.32289 l -4.75,3.64194 0,-23.4934 0,-23.49339 -12,0 -12,0 0,73 0,73 12,0 12,0 0,-5.06695 0,-5.06695 4.25,3.44397 c 9.9863,8.09232 19.2626,9.89655 27.7653,5.40026 z m -27.7653,-16.91388 -4.25,-2.17581 0,-34.13307 0,-34.13306 4.3595,-2.17725 c 5.5697,-2.78164 7.1706,-2.73806 10.1859,0.27729 l 2.4546,2.45454 0,32.9984 c 0,34.57391 -0.3218,37.40721 -4.3719,38.4941 -3.2047,0.86 -3.7772,0.75031 -8.3781,-1.60514 z m 107.5244,17.67791 c 6.9107,-2.05226 12.9508,-6.91531 16.1147,-12.97436 2.183,-4.18051 2.6672,-6.59801 2.9546,-14.75 l 0.3437,-9.75 -12.0937,0 -12.0937,0 0,8.07692 c 0,7.66836 -0.1541,8.23103 -3.0464,11.12332 -2.6338,2.63379 -3.548,2.96609 -6.75,2.45349 -6.5471,-1.04811 -7.2036,-2.8494 -7.2036,-19.76451 l 0,-14.88922 20.5,0 20.5,0 0,-18.32186 c 0,-20.32322 -0.836,-24.59717 -6.0483,-30.92058 -1.6459,-1.99674 -5.5708,-4.89654 -8.7221,-6.444 -5.3599,-2.63201 -6.5362,-2.81277 -18.2296,-2.80126 -11.6012,0.0114 -12.866,0.20453 -17.59,2.68577 -6.4588,3.39242 -10.7369,8.25931 -12.8486,14.61694 -1.4433,4.34544 -1.6208,9.47878 -1.3606,39.34126 l 0.2992,34.34373 3,5.5 c 3.1442,5.76435 9.7471,11.13793 15.8647,12.91094 5.1677,1.49773 20.7644,1.2399 26.4097,-0.43658 z m -21.7744,-77.31937 c 0,-11.78969 0.5951,-13.19796 6.1315,-14.50998 3.3453,-0.79279 8.617,1.01665 9.8896,3.39443 0.5384,1.00599 0.9789,6.35866 0.9789,11.89482 l 0,10.06574 -8.5,0 -8.5,0 0,-10.84501 z m -234,14.34501 0,-63.5 12.5,0 12.5,0 0,-9.5 0,-9.5 -37,0 -37,0 0,9.5 0,9.5 12,0 12,0 0,63.5 0,63.5 12.5,0 12.5,0 0,-63.5 z m 96.7175,-131.59158 c -11.5678,-2.72389 -19.0195,-10.55979 -21.5943,-22.70764 -1.6813,-7.93244 -1.4928,-69.2248 0.2329,-75.70078 2.6349,-9.8883 7.3629,-15.65738 16.1439,-19.69878 4.4503,-2.04825 6.484,-2.29753 18.5,-2.26762 11.5073,0.0286 14.1653,0.34016 18.0075,2.11052 9.9995,4.60748 15.2302,12.026 16.9718,24.07088 1.247,8.62402 1.2622,58.45077 0.021,68.00726 -2.4309,18.71273 -13.7513,27.4146 -35.3554,27.17729 -5.0295,-0.0553 -10.8468,-0.50126 -12.9271,-0.99113 z m 19.2669,-19.69471 c 3.3936,-2.74795 3.9285,-8.22354 3.9285,-40.21371 0,-31.99017 -0.5349,-37.46576 -3.9285,-40.21371 -3.2344,-2.61903 -9.2497,-2.32204 -12.6787,0.62596 l -2.8057,2.41226 -0.3077,33.83774 c -0.1692,18.61076 -0.027,35.35053 0.3163,37.19948 1.3414,7.22755 10.0038,10.78296 15.4758,6.35198 z m 68.4742,18.90663 c -5.0754,-2.30543 -9.1466,-7.07334 -10.161,-11.89978 C 306.8676,197.17425 306.5122,172.325 306.5079,144 l -0.01,-51.5 13,0 13,0 0.5,49.09716 c 0.4031,39.58407 0.7659,49.41741 1.8725,50.75 1.9263,2.3199 7.6027,2.0758 12.232,-0.52601 l 3.8767,-2.17886 0.2594,-48.57114 0.2596,-48.57115 12.75,-0.27988 12.75,-0.27987 0,60.06161 0,60.06161 -11.7472,-0.28173 L 353.5038,211.5 352.5944,207 c -0.5002,-2.475 -1.0215,-4.64499 -1.1584,-4.8222 -0.137,-0.17721 -2.9289,1.50711 -6.2044,3.74293 -3.2755,2.23582 -7.5785,4.74331 -9.5623,5.5722 -4.8827,2.04011 -13.2792,1.86834 -18.2126,-0.37259 z m -171.4586,-32.35422 0,-33.29031 L 130.5001,99 c -8.525,-25.56169 -15.5,-46.81875 -15.5,-47.2379 0,-0.41916 6.6671,-0.7621 14.8158,-0.7621 l 14.8158,0 5.1236,19.25 c 2.8179,10.5875 6.1633,24.0861 7.4341,29.99688 1.2709,5.91079 2.6175,10.74829 2.9925,10.75 0.375,0.002 1.4253,-3.48438 2.334,-7.74688 0.9087,-4.2625 3.478,-14.95 5.7094,-23.75 2.2314,-8.8 4.7548,-18.8125 5.6076,-22.25 l 1.5505,-6.25 14.8083,0 c 8.1446,0 14.8084,0.11812 14.8084,0.2625 0,0.14437 -6.8486,20.50687 -15.2192,45.25 l -15.2192,44.9875 -0.5308,35 -0.5308,35 -13.75,0.27822 -13.75,0.27822 0,-33.29032 z"
     id="path3510"
     inkscape:connector-curvature="0" />
</svg>
