<?xml version="1.0" encoding="UTF-8" standalone="no"?>
<!-- Created with Inkscape (http://www.inkscape.org/) -->

<svg
   xmlns:dc="http://purl.org/dc/elements/1.1/"
   xmlns:cc="http://creativecommons.org/ns#"
   xmlns:rdf="http://www.w3.org/1999/02/22-rdf-syntax-ns#"
   xmlns:svg="http://www.w3.org/2000/svg"
   xmlns="http://www.w3.org/2000/svg"
   xmlns:sodipodi="http://sodipodi.sourceforge.net/DTD/sodipodi-0.dtd"
   xmlns:inkscape="http://www.inkscape.org/namespaces/inkscape"
   width="139.13554mm"
   height="139.41777mm"
   viewBox="0 0 492.99995 493.99997"
   id="svg2"
   version="1.1"
   inkscape:version="0.91 r13725"
   sodipodi:docname="facebook.svg">
  <defs
     id="defs4" />
  <sodipodi:namedview
     id="base"
     pagecolor="#ffffff"
     bordercolor="#666666"
     borderopacity="1.0"
     inkscape:pageopacity="0.0"
     inkscape:pageshadow="2"
     inkscape:zoom="0.49497475"
     inkscape:cx="1022.8832"
     inkscape:cy="280.97506"
     inkscape:document-units="px"
     inkscape:current-layer="layer1"
     showgrid="false"
     fit-margin-top="0"
     fit-margin-left="0"
     fit-margin-right="0"
     fit-margin-bottom="0"
     inkscape:window-width="1280"
     inkscape:window-height="682"
     inkscape:window-x="0"
     inkscape:window-y="1"
     inkscape:window-maximized="1" />
  <metadata
     id="metadata7">
    <rdf:RDF>
      <cc:Work
         rdf:about="">
        <dc:format>image/svg+xml</dc:format>
        <dc:type
           rdf:resource="http://purl.org/dc/dcmitype/StillImage" />
        <dc:title></dc:title>
      </cc:Work>
    </rdf:RDF>
  </metadata>
  <g
     inkscape:label="Layer 1"
     inkscape:groupmode="layer"
     id="layer1"
     transform="translate(271.55251,-1874.3774)">
    <path
       style="fill:#000000"
       d="m -271.55251,2121.3774 0,-247 246.5,0 246.49998,0 0,247 0,247 -246.49998,0 -246.5,0 0,-247 z m 480.99998,0 0,-235 -234.49998,0 -234.5,0 0,235 0,235 234.5,0 234.49998,0 0,-235 z m -268.99998,92.5 0,-87.5 -30,0 -30,0 0,-28.9851 0,-28.9851 29.75,-0.2649 29.75,-0.2649 0.60648,-26 c 0.56661,-24.2909 0.78062,-26.5774 3.2555,-34.7841 9.59164,-31.8056 29.19869,-52.3031 57.6380005,-60.2554 5.5488,-1.5516 11.5122995,-1.8749 40.7499995,-2.2092 l 34.25,-0.3916 0,31.0281 0,31.0281 -29.9209,0.292 -29.921,0.2921 -2.6763,2.5 c -1.472,1.375 -3.6451,4.3 -4.8290995,6.5 -2.0327,3.777 -2.1527,5.338 -2.1527,28 l 0,24 34.7499995,0.263 34.75,0.2629 0,28.9871 0,28.987 -35,0 -34.9999995,0 0,87.5 0,87.5 -32.9999805,0 -33,0 0,-87.5 z"
       id="path4377"
       inkscape:connector-curvature="0" />
  </g>
</svg>
