<?xml version="1.0" encoding="UTF-8" standalone="no"?>
<!-- Created with Inkscape (http://www.inkscape.org/) -->

<svg
   xmlns:dc="http://purl.org/dc/elements/1.1/"
   xmlns:cc="http://creativecommons.org/ns#"
   xmlns:rdf="http://www.w3.org/1999/02/22-rdf-syntax-ns#"
   xmlns:svg="http://www.w3.org/2000/svg"
   xmlns="http://www.w3.org/2000/svg"
   xmlns:sodipodi="http://sodipodi.sourceforge.net/DTD/sodipodi-0.dtd"
   xmlns:inkscape="http://www.inkscape.org/namespaces/inkscape"
   width="139.13556mm"
   height="139.41777mm"
   viewBox="0 0 493 493.99997"
   id="svg2"
   version="1.1"
   inkscape:version="0.91 r13725"
   sodipodi:docname="youtube.svg">
  <defs
     id="defs4" />
  <sodipodi:namedview
     id="base"
     pagecolor="#ffffff"
     bordercolor="#666666"
     borderopacity="1.0"
     inkscape:pageopacity="0.0"
     inkscape:pageshadow="2"
     inkscape:zoom="0.49497475"
     inkscape:cx="-498.92934"
     inkscape:cy="351.16293"
     inkscape:document-units="px"
     inkscape:current-layer="layer1"
     showgrid="false"
     fit-margin-top="0"
     fit-margin-left="0"
     fit-margin-right="0"
     fit-margin-bottom="0"
     inkscape:window-width="1280"
     inkscape:window-height="682"
     inkscape:window-x="0"
     inkscape:window-y="1"
     inkscape:window-maximized="1" />
  <metadata
     id="metadata7">
    <rdf:RDF>
      <cc:Work
         rdf:about="">
        <dc:format>image/svg+xml</dc:format>
        <dc:type
           rdf:resource="http://purl.org/dc/dcmitype/StillImage" />
        <dc:title></dc:title>
      </cc:Work>
    </rdf:RDF>
  </metadata>
  <g
     inkscape:label="Layer 1"
     inkscape:groupmode="layer"
     id="layer1"
     transform="translate(-1250.26,-1944.5653)">
    <path
       style="fill:#000000"
       d="m 1250.26,2191.5653 0,-247 246.5,0 246.5,0 0,247 0,247 -246.5,0 -246.5,0 0,-247 z m 481,0 0,-235 -234.5,0 -234.5,0 0,235 0,235 234.5,0 234.5,0 0,-235 z m -370,181.4557 c -8.0131,-1.7342 -20.9159,-8.0354 -27.2259,-13.296 -10.9284,-9.1108 -17.984,-19.9327 -21.9682,-33.6948 -2.2228,-7.6779 -2.3059,-9.2982 -2.3059,-44.9649 0,-27.5663 0.3464,-38.5298 1.3586,-43 5.3978,-23.839 22.5921,-42.3475 46.1414,-49.6684 l 7.5,-2.3316 133.5,0 c 147.272,0 138.0433,-0.3962 152.5,6.5467 18.9839,9.117 32.2253,26.3102 36.105,46.8798 1.2416,6.5834 1.4622,14.9737 1.1788,44.8362 l -0.3486,36.7373 -2.7499,8.2145 c -6.5792,19.6531 -22.2675,35.3189 -42.1069,42.0462 l -8.0784,2.7393 -133.5,0.1812 c -111.4902,0.1514 -134.5717,-0.051 -140,-1.2255 z m 82.1279,-25.8728 c 1.8546,-0.7794 5.2807,-2.8044 7.6134,-4.5 2.3328,-1.6956 4.6377,-3.0829 5.1222,-3.0829 0.4845,0 1.1712,1.8157 1.526,4.0348 l 0.6452,4.0348 10.2327,-0.2848 10.2326,-0.2848 0,-50.5 0,-50.5 -11.25,-0.2828 -11.25,-0.2827 0,41.5458 0,41.5457 -4.5534,2.2122 c -4.1696,2.0257 -4.7773,2.0866 -7.2085,0.722 -1.4603,-0.8196 -2.9664,-2.6085 -3.3469,-3.9752 -0.3805,-1.3668 -0.7367,-20.3725 -0.7915,-42.235 l -0.1,-39.75 -11,0 -11,0 0.024,43.25 c 0.025,45.1453 0.4419,50.4519 4.2865,54.6275 4.5592,4.9517 13.8962,6.6137 20.8169,3.7054 z m 112.6797,-1.4459 c 6.777,-4.8256 6.6924,-4.2045 6.6924,-49.137 0,-38.8325 -0.083,-40.6441 -2.0229,-44 -2.4924,-4.3124 -9.4127,-8.0081 -14.939,-7.978 -4.798,0.026 -10.5397,2.5101 -16.0381,6.9385 l -4,3.2217 -0.5,-21.8411 -0.5,-21.8411 -11,0 -11,0 0,68 0,68 11.25,0.2828 11.25,0.2827 0,-4.6514 0,-4.6515 3.5364,2.6974 c 8.2482,6.2912 11.5995,7.65 18.0061,7.3009 4.3164,-0.2352 6.9632,-0.9848 9.2651,-2.6239 z m -26.5576,-15.1101 -4.25,-1.9291 0,-31.9597 0,-31.9597 4.464,-2.161 c 3.9259,-1.9005 4.793,-2.0016 7.1923,-0.8392 1.7598,0.8525 3.0346,2.5117 3.5909,4.6735 0.4745,1.8435 0.7254,16.6213 0.5577,32.8396 l -0.3049,29.488 -2.3608,1.9103 c -2.9092,2.3541 -3.5752,2.3494 -8.8892,-0.063 z m 104.0416,14.6188 c 9.6877,-4.7397 13.7084,-12.2985 13.7084,-25.7714 l 0,-7.8743 -10.8483,0 -10.8482,0 -0.9018,8.6533 c -0.8061,7.7355 -1.1897,8.8672 -3.6164,10.6689 -2.4198,1.7966 -3.152,1.8845 -6.7403,0.8094 -5.1049,-1.5294 -5.5129,-2.9405 -5.531,-19.1316 l -0.014,-12.5 19.25,-0.2716 19.25,-0.2716 0,-16.8527 c 0,-23.2946 -2.321,-29.1683 -13.7417,-34.7765 -5.2672,-2.5864 -6.7025,-2.8276 -16.829,-2.8276 -10.3521,0 -11.4556,0.1966 -17,3.0285 -4.7166,2.4091 -6.5667,4.0928 -9.0455,8.2319 -1.714,2.8619 -3.3965,6.899 -3.739,8.9715 -0.3426,2.0725 -0.6278,16.3989 -0.6338,31.8366 -0.013,32.6715 0.547,35.9633 7.3383,43.1512 5.9871,6.3367 12.3756,8.4142 24.684,8.027 8.0411,-0.253 10.4295,-0.7384 15.2583,-3.101 z m -24.9098,-61.0931 c -0.3234,-0.8426 -0.4291,-5.3493 -0.2349,-10.0149 0.3983,-9.571 2.1655,-12.5951 7.448,-12.7453 7.6951,-0.2187 9.7586,3.4084 9.2204,16.2076 l -0.3153,7.5 -7.7652,0.2923 c -6.2387,0.2349 -7.8807,-0.01 -8.353,-1.2397 z m -217.3818,3.9474 0,-59.5 11.5389,0 11.5389,0 -0.2889,-8.75 -0.2889,-8.75 -34.25,-0.2631 -34.25,-0.2632 0,9.0132 0,9.0131 11,0 11,0 0,59.5 0,59.5 12,0 12,0 0,-59.5 z m 88.6723,-122.8718 c -7.1402,-2.0092 -12.7262,-6.3826 -16.1723,-12.6619 l -3,-5.4663 0,-37.5 0,-37.5 3.0589,-5.3927 c 5.8105,-10.2436 16.5339,-14.8137 32.4411,-13.8258 14.11,0.8764 22.0289,5.2413 27.2584,15.0248 2.1811,4.0805 2.2499,5.143 2.5496,39.3715 0.2,22.8498 -0.067,36.5723 -0.7636,39.1573 -1.8983,7.0498 -6.9338,13.3087 -13.3304,16.5691 -5.1533,2.6267 -6.9577,2.9839 -16.5,3.2658 -6.9204,0.2045 -12.4234,-0.1644 -15.5417,-1.0418 z m 17.7829,-17.2494 c 4.1717,-1.6008 4.5448,-4.7509 4.5448,-38.3788 0,-38.3522 -0.1574,-39 -9.471,-39 -1.8191,0 -4.3698,0.8602 -5.6682,1.9117 l -2.3608,1.9116 0,35.1767 0,35.1767 2.3608,1.9117 c 2.3259,1.8834 7.4292,2.505 10.5944,1.2904 z m 64.5652,16.3712 c -2.4218,-1.2375 -5.2317,-3.3893 -6.2441,-4.7817 -3.2768,-4.5066 -3.8347,-14.0062 -3.551,-60.4683 l 0.2747,-45 11.9999,0 12,0 0.5,46.287 c 0.4287,39.6836 0.714,46.4222 2,47.2347 2.5445,1.6075 8.0982,1.0808 11.632,-1.1033 l 3.3681,-2.0815 0,-45.4492 0,-45.4493 12.0188,0.2808 12.0189,0.2808 2e-4,55.5 2e-4,55.5 -10.953,0.2821 -10.953,0.2822 -0.6796,-4.5322 c -0.3738,-2.4926 -1.0775,-4.5321 -1.5638,-4.5321 -0.4863,0 -3.0711,1.5712 -5.7441,3.4916 -9.8016,7.0417 -18.0468,8.3858 -26.1242,4.2584 z m -159.0482,0.5299 c -0.015,-0.429 0,-14.0843 0.027,-30.3452 l 0.054,-29.5653 -14.5265,-43.3933 c -7.9896,-23.8663 -14.5265,-43.9744 -14.5265,-44.6847 0,-0.993 3.177,-1.2893 13.75,-1.2824 l 13.75,0.01 4.7617,18.241 c 2.6189,10.0326 5.7335,22.6285 6.9213,27.991 1.1877,5.3625 2.4675,9.75 2.8439,9.75 0.3764,0 1.6327,-4.7328 2.7919,-10.5173 1.1591,-5.7845 4.2121,-18.3845 6.7844,-28 l 4.6768,-17.4827 13.7891,0 13.7891,0 -14.9555,44.7245 -14.9556,44.7245 0.085,30.0255 0.085,30.0255 -12.5582,0.2799 c -6.9071,0.1539 -12.5708,-0.071 -12.586,-0.5 z"
       id="path4291"
       inkscape:connector-curvature="0" />
  </g>
</svg>
